<svg xmlns="http://www.w3.org/2000/svg" viewBox="0 0 56.078 59.741"><path fill="#005782" d="m22.019 39.58-6.9999 2.3859v9.2744l6.9999-2.3859z"/><path fill="#3776AB" d="M15.019 51.24c-6.9998-11.66 0 0-7.0001-11.66 6.9999-2.3859.00035.00001 6.9999-2.3859l6.9997 2.3859z"/><path fill="#005782" d="M22.019 39.58h-14l6.9999 11.66 6.9999-2.3859z"/><path fill="#3776AB" d="M7.001 53.98c-6.9998-11.66 0 0-7.0001-11.66 6.9999-2.3859.00035.00002 6.9999-2.3859l6.9998 2.3859z"/><g><path fill="#52D3FF" d="m8.019 39.58 6.9999 2.3859v9.2744L8.019 48.8544z"/><path fill="#005782" d="M14.001 42.32h-14l6.9999 11.66 6.9999-2.3859z"/><path fill="#52D3FF" d="m.001 42.32 6.9999 2.3859v9.2744L.001 51.5944z"/></g><path fill="#3776AB" d="m15.019 37.2-6.9996 2.3859 6.9996 2.3859 6.9996-2.3859zm-8.018 2.74L.0014 42.3259l6.9996 2.3859 6.9996-2.3859zm24.095 11.48c-6.9998-11.66 0 0-7.0001-11.66 6.9999-2.3859.00035.00001 6.9999-2.3859l6.9997 2.3859z"/><g><path fill="#005782" d="M38.096 39.76h-14l6.9999 11.66 6.9999-2.3859z"/><path fill="#52D3FF" d="m24.096 39.76 6.9999 2.3859v9.2744l-6.9999-2.3859z"/><path fill="#08c" d="m31.096 37.37-6.9996 2.3859 6.9996 2.3859 6.9996-2.3859z"/></g><path fill="#3776AB" d="M39.154 54.33c-6.9998-11.66 0 0-7.0001-11.66 6.9999-2.3859.00035.00001 6.9999-2.3859l6.9997 2.3859z"/><g><path fill="#005782" d="M46.154 42.67h-14l6.9999 11.66 6.9999-2.3859z"/><path fill="#52D3FF" d="m32.154 42.67 6.9999 2.3859v9.2744l-6.9999-2.3859z"/><path fill="#08c" d="m39.154 40.29-6.9996 2.3859 6.9996 2.3859 6.9996-2.3859z"/><path fill="#005782" d="m22.019 29.53-6.9999 2.3859v9.2744l6.9999-2.3859z"/></g><path fill="#3776AB" d="M15.019 41.19c-6.9998-11.66 0 0-7.0001-11.66 6.9999-2.3859.00035.00001 6.9999-2.3859l6.9997 2.3859z"/><path fill="#3776AB" d="M23.037 38.45c-6.9997-11.66 0 0-7.0001-11.66 6.9999-2.3859.00035.00001 6.9999-2.3859l6.9997 2.3859z"/><g><path fill="#005782" d="M30.037 26.79h-14l6.9999 11.66 6.9999-2.3859z"/><path fill="#52D3FF" d="m16.037 26.79 6.9999 2.3859v9.2744l-6.9999-2.3859z"/><path fill="#005782" d="M22.019 29.53h-14l6.9999 11.66 6.9999-2.3859z"/></g><path fill="#3776AB" d="M7 43.93c-6.9998-11.66 0 0-7.0001-11.66 6.9999-2.3859.00035.00002 6.9999-2.3859l6.9998 2.3859z"/><g><path fill="#52D3FF" d="m8.019 29.53 6.9999 2.3859v9.2744L8.019 38.8044z"/><path fill="#005782" d="M14 32.27H0l6.9999 11.66 6.9999-2.3859z"/><path fill="#52D3FF" d="m.001 32.27 6.9999 2.3859v9.2744L.001 41.5444z"/></g><g fill="#3776AB"><path fill="#08c" d="m23.037 24.4-6.9996 2.3859 6.9996 2.3859 6.9996-2.3859zm-8.018 2.74-6.9996 2.3859 6.9996 2.3859 6.9996-2.3859zM7 29.88.0004 32.2659 7 34.6518l6.9996-2.3859z"/><path d="M31.096 41.36c-6.9998-11.66 0 0-7.0001-11.66 6.9999-2.3859.00035.00001 6.9999-2.3859L38.0955 29.7z"/></g><g><path fill="#005782" d="M38.096 29.7h-14l6.9999 11.66 6.9999-2.3859z"/><path fill="#52D3FF" d="m24.096 29.7 6.9999 2.3859v9.2744l-6.9999-2.3859z"/><path fill="#08c" d="m31.096 27.32-6.9996 2.3859 6.9996 2.3859 6.9996-2.3859z"/></g><path fill="#3776AB" d="M39.154 44.28c-6.9998-11.66 0 0-7.0001-11.66 6.9999-2.3859.00035.00001 6.9999-2.3859l6.9997 2.3859z"/><g><path fill="#005782" d="M46.154 32.62h-14l6.9999 11.66 6.9999-2.3859z"/><path fill="#52D3FF" d="m32.154 32.62 6.9999 2.3859v9.2744l-6.9999-2.3859z"/><path fill="#08c" d="m39.154 30.23-6.9996 2.3859 6.9996 2.3859 6.9996-2.3859z"/><path fill="#005782" d="m22.019 19.47-6.9999 2.3859v9.2744l6.9999-2.3859z"/></g><path fill="#3776AB" d="M15.019 31.13c-6.9998-11.66 0 0-7.0001-11.66 6.9999-2.3859.00035.00001 6.9999-2.3859l6.9997 2.3859z"/><path fill="#3776AB" d="M23.037 28.39c-6.9997-11.66 0 0-7.0001-11.66 6.9999-2.3859.00035.00001 6.9999-2.3859l6.9997 2.3859z"/><g><path fill="#005782" d="M30.037 16.73h-14l6.9999 11.66 6.9999-2.3859z"/><path fill="#52D3FF" d="m16.037 16.73 6.9999 2.3859v9.2744l-6.9999-2.3859z"/><path fill="#005782" d="M22.019 19.47h-14l6.9999 11.66 6.9999-2.3859z"/></g><path fill="#3776AB" d="M7.001 33.87c-6.9998-11.66 0 0-7.0001-11.66 6.9999-2.3859.00035.00001 6.9999-2.3859l6.9997 2.3859z"/><g><path fill="#52D3FF" d="m8.019 19.47 6.9999 2.3859v9.2744L8.019 28.7444z"/><path fill="#005782" d="M14.001 22.21h-14l6.9999 11.66 6.9999-2.3859z"/><path fill="#52D3FF" d="m.001 22.21 6.9999 2.3859v9.2744L.001 31.4844z"/></g><g fill="#3776AB"><path fill="#08c" d="m23.037 14.35-6.9996 2.3859 6.9996 2.3859 6.9996-2.3859zm-8.018 2.74-6.9996 2.3859 6.9996 2.3859 6.9996-2.3859zM7 19.83.0004 22.2159 7 24.6018l6.9996-2.3859z"/><path d="M31.096 31.31c-6.9998-11.66 0 0-7.0001-11.66 6.9999-2.3859.00035.00001 6.9999-2.3859l6.9997 2.3859z"/></g><g><path fill="#005782" d="M38.096 19.65h-14l6.9999 11.66 6.9999-2.3859z"/><path fill="#52D3FF" d="m24.096 19.65 6.9999 2.3859v9.2744l-6.9999-2.3859z"/><path fill="#08c" d="m31.096 17.26-6.9996 2.3859 6.9996 2.3859 6.9996-2.3859z"/><path fill="#005782" d="m30.037 42.42-6.9999 2.3859v9.2744l6.9999-2.3859z"/></g><path fill="#3776AB" d="M23.037 54.08c-6.9997-11.66 0 0-7.0001-11.66 6.9999-2.3859.00035.00001 6.9999-2.3859l6.9998 2.3859z"/><path fill="#005782" d="M30.037 42.42h-14l6.9999 11.66 6.9999-2.3859z"/><path fill="#3776AB" d="M15.019 56.82c-6.9998-11.66 0 0-7.0001-11.66 6.9999-2.3859.00035.00002 6.9999-2.3859l6.9997 2.3859z"/><g><path fill="#52D3FF" d="m16.037 42.42 6.9999 2.3859v9.2744l-6.9999-2.3859z"/><path fill="#005782" d="M22.019 45.16h-14l6.9999 11.66 6.9999-2.3859z"/><path fill="#52D3FF" d="m8.019 45.16 6.9999 2.3859v9.2744L8.019 54.4344z"/><path fill="#08c" d="m23.037 40.04-6.9996 2.3859 6.9996 2.3859 6.9996-2.3859zm-8.018 2.74-6.9996 2.3859 6.9996 2.3859 6.9996-2.3859z"/><path fill="#005782" d="m38.095 45.34-6.9999 2.3859v9.2744l6.9999-2.3859z"/></g><path fill="#3776AB" d="M31.095 57c-6.9998-11.66 0 0-7.0001-11.66 6.9999-2.3859.00035.00001 6.9999-2.3859l6.9998 2.3859z"/><path fill="#005782" d="M38.095 45.34h-14L31.0949 57l6.9999-2.3859z"/><path fill="#3776AB" d="M23.077 59.74c-6.9998-11.66 0 0-7.0001-11.66 6.9999-2.3859.00035.00002 6.9999-2.3859l6.9998 2.3859z"/><g><path fill="#52D3FF" d="m24.095 45.34 6.9999 2.3859v9.2744l-6.9999-2.3859z"/><path fill="#005782" d="M30.077 48.08h-14l6.9999 11.66 6.9999-2.3859z"/><path fill="#52D3FF" d="m16.077 48.08 6.9999 2.3859v9.2744l-6.9999-2.3859z"/></g><path fill="#3776AB" d="m31.095 42.95-6.9996 2.3859 6.9996 2.3859 6.9996-2.3859zm-8.018 2.74-6.9996 2.3859 6.9996 2.3859 6.9996-2.3859zm0-1.59c-6.9998-11.66 0 0-7.0001-11.66 6.9999-2.3859.00035.00001 6.9999-2.3859l6.9998 2.3859z"/><g><path fill="#005782" d="M30.077 32.44h-14l6.9999 11.66 6.9999-2.3859z"/><path fill="#52D3FF" d="m16.077 32.44 6.9999 2.3859v9.2744l-6.9999-2.3859z"/><path fill="#08c" d="m23.077 30.06-6.9996 2.3859 6.9996 2.3859 6.9996-2.3859z"/></g><path fill="#3776AB" d="M45.384 29.92c-2.3943-13.388 0 0-2.3946-13.388 7.3908.26008.00033.00013 7.3908.26008l5.6933 4.7197z"/><g><path fill="#005782" d="m56.075 21.51-13.084-4.9799 2.3944 13.388 7.3908.26008z"/><path fill="#52D3FF" d="m42.99 16.53 5.6934 4.7198-3.299 8.6679-5.6934-4.7198z"/><path fill="#08c" d="m50.385 16.79-7.3905-.25994 5.6931 4.7197 7.3905.25996z"/></g><path fill="#3776AB" d="M29.042 13.55c1.1523-13.551 0 0 1.152-13.551 7.0716 2.1641.00029.00021 7.0716 2.1641l4.2777 6.0324z"/><g><path fill="#005782" d="M41.543 8.2 30.193.0034l-1.1521 13.551 7.0716 2.1641z"/><path fill="#52D3FF" d="m30.194 0 4.2779 6.0325-5.43 7.5187-4.2779-6.0325z"/><path fill="#08c" d="M37.265 2.17 30.1936.0061l4.2776 6.0323 7.0714 2.1639z"/></g></svg>